# xmcd
#
# Track frame offsets: 
#        150
#        31630
#        48664
#        68830
#        90018
#        109292
#        134496
#        155907
#        174931
#        195304
#        217898
#        238119
#        264936
#
# Disc length: 4090 seconds
#
# Revision: 1
# Processed by: cddbd v1.5.2PL0 Copyright (c) Steve Scherf et al.
# Submitted via: ExactAudioCopy v0.95b4
#
DISCID=a70ff80d
DTITLE=Various Artist - ML Promo Sampler Frühjahr 2003
DYEAR=2003
DGENRE=Salsa
TTITLE0=Cubismo - La Magia
TTITLE1=Polo Montanez - Columbia
TTITLE2=Jerry Galante - Corazon Espinado
TTITLE3=Kinito Mendez - El Rey
TTITLE4=Alex Bueno - Pideme
TTITLE5=Son Boricua - En El Barrio
TTITLE6=Grupo Caribe - Rumba Internacional
TTITLE7=Maria Diaz - Zapatos Bailaos
TTITLE8=Los Hermanos Rosario - Merengue Bomba
TTITLE9=Oscar D'Leon - Por Que Sera
TTITLE10=Kim De Los Santos - Mira Lo Que Has Hecho
TTITLE11=The Latin Jazz Coalition - Trombon Con Sazon
TTITLE12=Larry Harlow's Latin Jazz Encounter - Live at Birdland
EXTD=YEAR: 2003
EXTT0=
EXTT1=
EXTT2=
EXTT3=
EXTT4=
EXTT5=
EXTT6=
EXTT7=
EXTT8=
EXTT9=
EXTT10=
EXTT11=
EXTT12=
PLAYORDER=
